<?xml version="1.0" standalone="no"?>
<!DOCTYPE svg PUBLIC "-//W3C//DTD SVG 20010904//EN"
 "http://www.w3.org/TR/2001/REC-SVG-20010904/DTD/svg10.dtd">
<svg version="1.0" xmlns="http://www.w3.org/2000/svg"
 width="260.000000pt" height="260.000000pt" viewBox="0 0 260.000000 260.000000"
 preserveAspectRatio="xMidYMid meet">
<metadata>
Created by potrace 1.11, written by Peter Selinger 2001-2013
</metadata>
<g transform="translate(0.000000,260.000000) scale(0.100000,-0.100000)"
fill="#000000" stroke="none">
<path d="M1324 2559 c-70 -26 -102 -62 -179 -197 -102 -178 -106 -185 -126
-217 -11 -16 -22 -37 -26 -45 -4 -8 -20 -36 -35 -62 -33 -54 -39 -73 -45 -145
-4 -41 1 -64 21 -108 14 -30 24 -58 23 -62 -1 -4 -103 -8 -227 -9 -247 -1
-274 -6 -330 -64 -29 -30 -100 -144 -100 -161 0 -5 -4 -9 -10 -9 -5 0 -10 -4
-10 -9 0 -7 -70 -133 -121 -216 -10 -16 -25 -46 -34 -65 -9 -19 -22 -41 -29
-50 -29 -32 -36 -125 -15 -187 6 -19 49 -100 95 -180 46 -80 84 -147 84 -149
0 -2 15 -27 33 -56 18 -29 39 -66 47 -81 27 -53 79 -104 129 -126 48 -20 65
-21 343 -21 295 0 335 2 370 21 11 6 21 9 22 7 19 -29 44 -71 68 -117 17 -31
44 -75 60 -97 29 -41 98 -94 122 -94 7 0 16 -3 19 -7 14 -14 176 -23 184 -10
2 4 9 4 16 0 14 -9 211 -8 226 1 6 4 11 4 11 -1 0 -9 179 -8 224 2 82 17 148
73 206 177 22 40 45 80 50 88 9 15 112 192 163 282 25 44 27 54 27 173 l0 127
-137 241 c-94 163 -153 255 -185 286 l-46 46 49 84 c27 45 49 84 49 86 0 2 18
33 41 70 54 89 67 130 64 195 -2 53 -45 160 -66 168 -5 2 -9 8 -9 12 0 22
-220 389 -255 426 -64 68 -100 74 -430 73 -250 -1 -285 -3 -331 -20z"/>
</g>
</svg>
